<?xml version="1.0" encoding="UTF-8"?>
<svg id="Capa_2" data-name="Capa 2" xmlns="http://www.w3.org/2000/svg" viewBox="0 0 48.03 37.23">
  <defs>
    <style>
      .cls-1 {
        fill: #105459;
      }
    </style>
  </defs>
  <g id="Capa_1-2" data-name="Capa 1">
    <path class="cls-1" d="M7.48,13.89c-1.37,0-2.49-1.12-2.49-2.49s1.12-2.49,2.49-2.49,2.49,1.12,2.49,2.49-1.12,2.49-2.49,2.49ZM7.48,10.09c-.73,0-1.32.59-1.32,1.32s.59,1.32,1.32,1.32,1.32-.59,1.32-1.32-.59-1.32-1.32-1.32Z"/>
    <path class="cls-1" d="M47.99,5.29l-.79-3.77c-.22-1.03-1.24-1.69-2.27-1.48L12.79,6.79c-.29-.7-.97-1.2-1.77-1.2h-6.51c-1.06,0-1.91.86-1.91,1.91v23.04h-.69c-1.06,0-1.91.86-1.91,1.91v2.87c0,1.06.86,1.91,1.91,1.91h14.45c1.06,0,1.91-.86,1.91-1.91v-2.87c0-1.06-.86-1.91-1.91-1.91h-3.43v-15.94l33.58-7.05c.5-.11.93-.4,1.21-.83s.38-.94.27-1.44h0ZM3.77,7.51c0-.41.33-.74.74-.74h6.51c.23,0,.43.11.56.28.11.13.18.29.18.47v23.04H3.77V7.51ZM16.36,31.71c.41,0,.74.33.74.74v2.87c0,.41-.33.74-.74.74H1.91c-.41,0-.74-.33-.74-.74v-2.87c0-.41.33-.74.74-.74,0,0,14.45,0,14.45,0ZM41.82,7.34h0l-5.71,1.2h0l1.2-5.7h0l5.71-1.2h0l-1.2,5.7ZM29.16,10l1.2-5.7,5.7-1.2-1.2,5.7-5.7,1.2ZM29.1,4.56l-1.2,5.7-5.77,1.21,1.2-5.7h0s5.77-1.21,5.77-1.21ZM12.93,13.4v-5.45l2.2-.46-1.2,5.7h0l-1,.21ZM15.18,12.93h0l1.2-5.7h0l5.7-1.2-1.2,5.7h0l-5.7,1.2ZM46.74,6.08c-.11.17-.28.28-.47.32l-3.2.67h0l1.2-5.7h0l.9-.19c.41-.09.8.17.88.57l.79,3.77c.04.19,0,.39-.1.56Z"/>
  </g>
</svg>