<?xml version="1.0" encoding="UTF-8"?>
<svg id="Capa_2" data-name="Capa 2" xmlns="http://www.w3.org/2000/svg" viewBox="0 0 33.72 42.11">
  <defs>
    <style>
      .cls-1 {
        fill: currentColor;
      }
    </style>
  </defs>
  <g id="Capa_1-2" data-name="Capa 1">
    <g id="Modo_de_aislamiento" data-name="Modo de aislamiento">
      <g>
        <path class="cls-1" d="M22.15,35.76c2.09,0,3.8-1.71,3.8-3.8s-1.71-3.8-3.8-3.8c-.85,0-1.66.29-2.34.83l-.05.04-2.49-2.13c-.11-.1-.26-.15-.41-.15h-2.12c-.34,0-.62.28-.62.62s.28.62.62.62h1.89l.02.02,2.28,1.95-.04.06c-.36.61-.54,1.26-.54,1.93,0,2.1,1.7,3.8,3.8,3.8h0ZM19.84,30.89l.05-.1,1.51,1.29c.25.22.67.18.88-.07.11-.13.16-.29.15-.45-.01-.17-.09-.32-.22-.43l-1.49-1.28.1-.06c.41-.25.87-.39,1.34-.39,1.41,0,2.55,1.15,2.55,2.55s-1.15,2.55-2.55,2.55-2.55-1.15-2.55-2.55c0-.36.08-.73.24-1.07h-.01Z"/>
        <path class="cls-1" d="M24.62,42.11h1.41c.73,0,1.33-.6,1.33-1.33v-1.68h.07c.49-.12.93-.25,1.35-.42.95-.36,1.81-.89,2.57-1.57.73-.67,1.31-1.46,1.73-2.36.86-1.85.86-3.97,0-5.81-.42-.9-1-1.69-1.73-2.35-.38-.35-.84-.68-1.4-1l-.06-.03.02-.06c.31-1.06.52-2.04.64-2.98.49-3.79.13-7.71-1.02-11.36-.44-1.41-1.06-2.79-1.85-4.11l-.02-.04,1.7-3.68c.45-1.01,0-2.21-.99-2.68l-1.29-.59c-.08-.04-.17-.06-.26-.06-.24,0-.47.14-.57.36l-5.57,12.03c-.07.15-.08.32-.02.48s.17.28.32.35l1.28.59c.27.13.57.2.86.2.79,0,1.51-.46,1.84-1.18l.47-1.01.07.19c.02.06.05.12.07.18.03.07.06.15.09.22.49,1.54.81,3.14.94,4.74.15,1.6.12,3.22-.09,4.81-.09.69-.24,1.42-.47,2.24l-.02.08-11.78-3.18c-.69-.27-1.45-.46-2.33-.6h-.07v-3.1h2.9c.73,0,1.33-.6,1.33-1.33v-.29c0-.95-.67-1.79-1.6-1.99l-7.48-1.72c-.1-.02-.2-.03-.3-.03-.59,0-1.1.38-1.27.94-.29.98-.45,2-.48,3.02-.02.37.12.73.37.99s.6.41.96.41h1.49v3.25h-.06c-.53.14-.99.28-1.4.44-1.21.49-2.31,1.19-3.26,2.08-.94.85-1.68,1.86-2.21,3-1.1,2.35-1.1,5.05,0,7.4.53,1.14,1.28,2.15,2.21,3,.96.87,2.06,1.54,3.26,2.01.41.15.86.28,1.4.41h.06v1.78c0,.73.6,1.33,1.33,1.33h1.41c.73,0,1.33-.6,1.33-1.33v-1.49h11.46v1.49c0,.73.6,1.33,1.33,1.33h0ZM26.11,40.86h-1.58v-1.58h1.58v1.58ZM23.83,12.32c-.13.27-.41.45-.71.45-.11,0-.22-.02-.33-.07l-.72-.33L27.12,1.47l.72.33c.19.09.34.25.41.44.07.2.06.41-.03.6l-4.4,9.47h0ZM26.17,10.29v-.06l.84-1.82.08.15c.49.95.91,1.96,1.24,2.98,1.1,3.46,1.43,7.19.97,10.8-.11.87-.29,1.75-.52,2.6l-.02.08-1.52-.41.02-.08c.22-.79.38-1.59.49-2.39.22-1.69.25-3.4.09-5.09-.15-1.7-.48-3.39-1-5.02-.22-.65-.44-1.22-.67-1.74ZM6.18,16.16v-.09c.04-.92.19-1.84.45-2.72l.02-.07,7.56,1.73c.36.09.62.42.61.79v.37H6.18ZM10.58,17.41v2.98h-.08c-.47,0-.94.01-1.4.06h-.09v-3.04h1.58-.01ZM10.58,40.86h-1.58v-1.58h1.58v1.58ZM10.23,38.01c-1.2,0-2.38-.22-3.5-.65-1.05-.41-2.01-1.01-2.85-1.77-.81-.73-1.46-1.61-1.92-2.6-.94-2.02-.94-4.33,0-6.35.48-.99,1.13-1.85,1.95-2.57.83-.76,1.79-1.36,2.85-1.77.54-.22,1.12-.38,1.7-.48h.04c.87-.15,1.77-.19,2.66-.12h.13c.88.11,1.73.33,2.51.65h.08l14.48,3.91c.18.07.34.14.51.22h.02s0,.01.02.02c.57.27,1.1.63,1.57,1.06.6.55,1.09,1.21,1.43,1.95.71,1.51.71,3.24,0,4.76-.35.75-.83,1.4-1.43,1.96-.63.57-1.35,1.02-2.14,1.33-.85.33-1.74.49-2.64.49h-15.45l-.02-.04Z"/>
      </g>
    </g>
  </g>
</svg>