<?xml version="1.0" encoding="UTF-8"?>
<svg id="Capa_2" data-name="Capa 2" xmlns="http://www.w3.org/2000/svg" viewBox="0 0 37.37 38.07">
  <defs>
    <style>
      .cls-1 {
        fill: #fff;
      }
    </style>
  </defs>
  <g id="Capa_1-2" data-name="Capa 1">
    <path class="cls-1" d="M37.37,0v38.07h-4.21v-3.53H4.25v3.53H0V0h4.25v2.09h28.94V0h4.18ZM34.25,1.07v35.9h2.03V1.07h-2.03ZM1.09,1.07v35.9h2.06V1.07H1.09ZM33.15,3.19H4.25v2.07h28.91v-2.07h-.01ZM33.15,6.36h-7.37v13.38c2.81.28,5.02,2.65,5.02,5.53,0,3.07-2.5,5.59-5.56,5.59s-5.55-2.51-5.55-5.59c0-2.89,2.19-5.26,5-5.53V6.36h-8.87v17.9h.96c.29,0,.55.26.55.55v3.15c0,.29-.26.55-.55.55H6.75c-.29,0-.55-.26-.55-.55v-3.15c0-.29.26-.55.55-.55h.92V6.36h-3.41v27.09l28.91-.02V6.36h-.02ZM14.72,6.36h-5.97v17.9h5.97V6.36ZM25.24,20.8c-2.47,0-4.45,1.99-4.45,4.47s1.98,4.49,4.45,4.49,4.47-2.01,4.47-4.49-2-4.47-4.47-4.47ZM16.23,25.36H7.29v2.06h8.94v-2.06Z"/>
  </g>
</svg>