<?xml version="1.0" encoding="UTF-8"?>
<svg id="Capa_2" data-name="Capa 2" xmlns="http://www.w3.org/2000/svg" viewBox="0 0 45.08 44.32">
  <defs>
    <style>
      .cls-1 {
        fill: #fff;
      }
    </style>
  </defs>
  <g id="Capa_1-2" data-name="Capa 1">
    <g>
      <path class="cls-1" d="M44.52,29.72H.56c-.31,0-.56-.25-.56-.56s.25-.56.56-.56h43.96c.31,0,.56.25.56.56s-.25.56-.56.56Z"/>
      <path class="cls-1" d="M21.34,3.17c-2.14,0-3.88,1.74-3.88,3.89s1.74,3.89,3.88,3.89,3.89-1.74,3.89-3.89-1.74-3.89-3.89-3.89ZM21.34,9.82c-1.52,0-2.76-1.24-2.76-2.76s1.24-2.76,2.76-2.76,2.76,1.24,2.76,2.76-1.24,2.76-2.76,2.76ZM21.9,0h-1.12v2.1h1.12V0ZM20.78,14.11h1.12v-2.1h-1.12s0,2.1,0,2.1ZM26.29,6.49v1.12h2.1v-1.12h-2.1ZM14.29,7.61h2.1v-1.12h-2.1s0,1.12,0,1.12Z"/>
      <path class="cls-1" d="M14.43,15.17c.37-.68.57-1.44.57-2.23,0-1.95-1.2-3.66-2.99-4.35.05-.25.07-.49.07-.74,0-2.17-1.76-3.94-3.93-3.94s-3.94,1.77-3.94,3.94c0,.25.02.49.07.74-1.79.68-2.99,2.4-2.99,4.35,0,.78.19,1.55.57,2.23C.7,16.26.04,17.77.04,19.38c0,3.19,2.59,5.78,5.78,5.78h1.57v4.4h1.12v-4.4h1.97c3.19,0,5.78-2.59,5.78-5.78,0-1.61-.66-3.12-1.83-4.21ZM10.48,24.04h-1.97v-1.57l4.75-3.76-.7-.88-4.06,3.21v-6.44l3.16-2.49-.7-.88-2.46,1.95v-4.25h-1.12v6.67l-3.28-2.89-.74.84,4.02,3.54v6.96h-1.57c-2.57,0-4.66-2.09-4.66-4.66,0-1.43.65-2.77,1.78-3.66.23-.18.28-.52.11-.76-.42-.6-.63-1.3-.63-2.02,0-1.63,1.1-3.04,2.68-3.43.15-.04.28-.14.36-.28.08-.14.09-.3.04-.45-.11-.31-.16-.62-.16-.93,0-1.55,1.26-2.81,2.82-2.81s2.81,1.26,2.81,2.81c0,.31-.05.62-.16.93-.05.15-.04.31.04.45.07.14.21.24.36.28,1.58.39,2.68,1.81,2.68,3.43,0,.72-.22,1.42-.63,2.02-.17.24-.12.58.11.76,1.13.89,1.78,2.23,1.78,3.66,0,2.57-2.09,4.66-4.66,4.66h0Z"/>
      <path class="cls-1" d="M44.78,8.26c0-3.74-3.04-6.77-6.77-6.77s-6.77,3.04-6.77,6.77c0,3.51,2.69,6.37,6.12,6.71v14.38h1.12v-14.36c3.51-.24,6.31-3.15,6.31-6.73h0ZM38.47,13.87v-.42l2.89-3.66-.88-.69-2,2.54v-5.63h-1.12v3.56l-1.78-2.38-.9.67,2.68,3.59v2.41c-2.81-.33-5-2.69-5-5.59,0-3.12,2.54-5.65,5.65-5.65s5.65,2.54,5.65,5.65-2.29,5.36-5.19,5.61h0Z"/>
      <path class="cls-1" d="M34.92,19.92c0-3.26-2.65-5.91-5.91-5.91s-5.91,2.65-5.91,5.91,2.4,5.61,5.43,5.86v3.2h1.12v-3.21c2.95-.32,5.27-2.81,5.27-5.85ZM29.65,24.64v-1.83l2.01-2.83-.91-.65-1.1,1.54v-2.43h-1.12v4.36l-1.27-1.83-.92.64,2.1,3.03c-2.37-.29-4.22-2.29-4.22-4.73,0-2.64,2.15-4.79,4.79-4.79s4.79,2.15,4.79,4.79c0,2.42-1.81,4.41-4.15,4.73Z"/>
      <path class="cls-1" d="M42.35,38.46s-.05.03-.07.04c-.77.55-2.23.55-2.99,0-.02-.02-.04-.03-.07-.04-1.14-.8-3.06-.79-4.2,0-.03,0-.05.03-.07.04-.77.55-2.23.55-2.99,0-1.15-.84-3.19-.84-4.34,0-.77.56-2.24.55-3,0-1.17-.85-3.18-.84-4.33,0-.77.56-2.24.55-3,0-1.16-.85-3.19-.84-4.33,0-.77.55-2.24.55-3,0-1.16-.85-3.19-.84-4.33,0-.77.55-2.24.55-3,0-.66-.48-1.59-.66-2.49-.59v1.12c.66-.07,1.37.04,1.83.38,1.15.84,3.15.85,4.32,0,.76-.56,2.23-.56,3.01,0,1.15.84,3.15.85,4.32,0,.76-.56,2.24-.57,3.01,0,1.16.84,3.16.84,4.32,0,.77-.56,2.24-.56,3.02,0,1.15.84,3.15.84,4.32,0,.77-.56,2.25-.56,3.03,0,1.13.82,3.08.84,4.25.05.03,0,.05-.03.08-.05.77-.56,2.23-.56,3,0,.02.02.05.03.07.04.57.39,1.31.61,2.09.61s1.52-.21,2.09-.6c.03,0,.05-.03.08-.05.48-.35,1.22-.45,1.9-.37v-1.12c-.89-.08-1.82.07-2.5.54h-.03ZM42.35,34.21s-.05.03-.07.04c-.76.56-2.23.56-2.99,0-.02-.02-.04-.03-.07-.04-1.14-.79-3.06-.79-4.2,0-.03,0-.05.03-.07.04-.76.56-2.23.55-2.99,0-1.16-.85-3.19-.85-4.35,0-.77.56-2.24.55-3,0-1.16-.85-3.18-.84-4.33,0-.77.56-2.24.55-3,0-1.16-.85-3.18-.84-4.33,0-.77.56-2.24.55-3,0-1.16-.85-3.18-.84-4.33,0-.77.56-2.24.55-3,0-.66-.48-1.59-.66-2.49-.59v1.12c.66-.07,1.37.04,1.83.38,1.15.83,3.16.84,4.32,0,.76-.56,2.24-.56,3.01,0,1.15.83,3.16.84,4.32,0,.76-.56,2.24-.56,3.01,0,1.16.84,3.16.84,4.32,0,.77-.56,2.24-.56,3.01,0,1.15.83,3.16.84,4.32,0,.77-.56,2.26-.56,3.02,0,1.14.82,3.09.84,4.25.05.03,0,.05-.03.08-.05.76-.56,2.24-.56,3,0,.02.02.05.03.07.04.57.39,1.31.61,2.1.61s1.52-.21,2.09-.61c.03,0,.05-.03.08-.05.48-.35,1.22-.45,1.9-.37v-1.12c-.89-.08-1.82.07-2.5.54h-.01ZM42.35,42.72s-.05.03-.07.04c-.76.56-2.23.56-2.99,0-.02-.02-.04-.03-.07-.04-1.14-.79-3.06-.79-4.2,0-.03,0-.05.03-.07.04-.76.56-2.23.55-2.99,0-1.16-.85-3.19-.85-4.35,0-.77.56-2.24.55-3,0-1.16-.85-3.18-.84-4.33,0-.77.56-2.24.55-3,0-1.16-.85-3.18-.84-4.33,0-.77.56-2.24.55-3,0-1.16-.85-3.18-.84-4.33,0-.77.56-2.24.55-3,0-.66-.48-1.59-.66-2.49-.59v1.12c.66-.07,1.37.04,1.83.38,1.15.84,3.16.84,4.32,0,.76-.56,2.24-.56,3.01,0,1.15.84,3.16.84,4.32,0,.76-.56,2.24-.56,3.01,0,1.16.84,3.16.84,4.32,0,.77-.56,2.24-.56,3.01,0,1.15.84,3.16.84,4.32,0,.77-.56,2.26-.56,3.02,0,1.14.82,3.09.84,4.25.05.03,0,.05-.03.08-.05.76-.56,2.24-.56,3,0,.02.02.05.03.07.04.57.39,1.31.61,2.1.61s1.52-.21,2.09-.61c.03,0,.05-.03.08-.05.48-.35,1.22-.45,1.9-.37v-1.12c-.89-.08-1.82.07-2.5.54h-.01Z"/>
    </g>
  </g>
</svg>