<?xml version="1.0" encoding="UTF-8"?>
<svg id="Capa_2" data-name="Capa 2" xmlns="http://www.w3.org/2000/svg" viewBox="0 0 36.67 36.68">
  <defs>
    <style>
      .cls-1 {
        fill: #fff;
      }
    </style>
  </defs>
  <g id="Capa_1-2" data-name="Capa 1">
    <g id="Modo_de_aislamiento" data-name="Modo de aislamiento">
      <g>
        <polygon class="cls-1" points="10.51 28.42 3.39 28.42 1.31 19.2 0 19.2 2.2 29.08 2.19 29.11 0 36.65 1.32 36.65 3.39 29.74 7.65 29.74 7.65 36.65 8.97 36.65 8.97 29.74 10.51 29.74 10.51 28.42"/>
        <path class="cls-1" d="M27.52,14.03l.23.23c.57.57,1.31.89,2.07.89h1.54c.84,0,1.57-.31,2.07-.88.58-.58.9-1.32.9-2.08,0-.17-.1-.37-.28-.54L18.96,1.1V0h-1.32v1.1l-.05.03L2.54,11.66c-.16.16-.26.36-.26.53,0,.83.31,1.57.89,2.07.51.58,1.24.9,2.08.9h1.54c.84,0,1.57-.31,2.07-.88l.23-.23.23.23c.57.57,1.31.89,2.07.89h1.54c.84,0,1.57-.31,2.07-.88l.23-.23.23.23c.57.57,1.31.89,2.07.89h.11v7.9h-6.91v1.32h1.43c3.08,0,5.48,2.41,5.48,5.48s-2.35,5.43-5.38,5.48v1.32c2.51-.04,4.78-1.45,5.94-3.7l.1-.18.1.18c1.17,2.25,3.44,3.67,5.94,3.7v-1.32c-3.02-.06-5.38-2.44-5.38-5.48s2.41-5.48,5.48-5.48h1.43v-1.32h-6.91v-7.9h.11c.84,0,1.57-.31,2.07-.88l.23-.24.23.23c.57.57,1.31.89,2.07.89h1.54c.84,0,1.57-.31,2.07-.88l.23-.23v-.04ZM20.35,24.36l-.21.19c-.69.61-1.29,1.37-1.74,2.2l-.09.17-.09-.17c-.48-.87-1.09-1.61-1.82-2.2l-.24-.19h4.2-.01ZM26.86,12.18c0,.42-.18.83-.49,1.15-.32.32-.73.49-1.15.49h-1.54c-.42,0-.83-.17-1.15-.49s-.49-.73-.49-1.15-.26-.66-.66-.66-.66.26-.66.66c0,.42-.17.83-.49,1.15s-.73.49-1.15.49h-1.54c-.42,0-.83-.17-1.15-.49s-.49-.73-.49-1.15-.26-.66-.66-.66-.66.26-.66.66c0,.42-.18.83-.49,1.15-.32.32-.73.49-1.15.49h-1.54c-.43,0-.83-.17-1.15-.49s-.49-.73-.49-1.15-.26-.66-.66-.66-.66.26-.66.66c0,.43-.17.83-.49,1.15s-.73.49-1.15.49h-1.54c-.42,0-.83-.17-1.15-.49-.25-.25-.33-.5-.41-.73l-.03-.08.07-.05L18.3,2.22l14.64,10.3-.02.07c-.09.36-.27.6-.41.74-.32.32-.73.49-1.15.49h-1.54c-.43,0-.83-.17-1.15-.49s-.49-.73-.49-1.15-.26-.66-.66-.66-.66.26-.66.66Z"/>
        <polygon class="cls-1" points="35.35 36.65 36.67 36.65 34.39 29.09 34.4 29.06 36.6 19.2 35.28 19.2 33.21 28.42 26.09 28.42 26.09 29.74 27.62 29.74 27.62 36.65 28.94 36.65 28.94 29.74 33.2 29.74 35.35 36.65"/>
      </g>
    </g>
  </g>
</svg>