<?xml version="1.0" encoding="UTF-8"?>
<svg id="Capa_2" data-name="Capa 2" xmlns="http://www.w3.org/2000/svg" viewBox="0 0 36.39 37.71">
  <defs>
    <style>
      .cls-1 {
        fill: #fff;
      }
    </style>
  </defs>
  <g id="Capa_1-2" data-name="Capa 1">
    <g id="Modo_de_aislamiento" data-name="Modo de aislamiento">
      <g>
        <path class="cls-1" d="M2.9,27.86c.84-.8,2.17-.8,3.01,0,1.35,1.34,3.53,1.34,4.87,0,.84-.8,2.17-.8,3.01,0,1.35,1.34,3.53,1.34,4.87,0,.84-.8,2.17-.8,3.01,0,1.35,1.34,3.53,1.34,4.87,0,.84-.8,2.17-.8,3.01,0,1.35,1.34,3.53,1.34,4.87,0l1.97-1.97-.93-.93-1.97,1.97c-.83.83-2.18.83-3.01,0-1.34-1.35-3.52-1.35-4.87,0h0c-.84.8-2.17.8-3.01,0-1.34-1.35-3.52-1.35-4.87,0h0c-.84.81-2.17.81-3.01,0-1.34-1.35-3.52-1.35-4.87,0h0c-.83.83-2.18.83-3.01,0-1.34-1.35-3.52-1.35-4.87,0h0l-1.97,1.97.93.93s1.97-1.97,1.97-1.97Z"/>
        <path class="cls-1" d="M2.9,31.8c.84-.8,2.17-.8,3.01,0,1.35,1.34,3.53,1.34,4.87,0,.84-.8,2.17-.8,3.01,0,1.35,1.34,3.53,1.34,4.87,0,.84-.8,2.17-.8,3.01,0,1.35,1.34,3.53,1.34,4.87,0,.84-.8,2.17-.8,3.01,0,1.35,1.34,3.53,1.34,4.87,0l1.97-1.97-.93-.93-1.97,1.97c-.83.83-2.18.83-3.01,0-1.34-1.35-3.52-1.35-4.87,0h0c-.84.81-2.17.81-3.01,0-1.34-1.35-3.52-1.35-4.87,0h0c-.84.81-2.17.81-3.01,0-1.34-1.35-3.52-1.35-4.87,0h0c-.83.83-2.18.83-3.01,0-1.34-1.35-3.52-1.35-4.87,0h0l-1.97,1.97.93.93s1.97-1.97,1.97-1.97Z"/>
        <path class="cls-1" d="M2.9,35.74c.84-.8,2.17-.8,3.01,0,1.35,1.34,3.53,1.34,4.87,0,.84-.8,2.17-.8,3.01,0,1.35,1.34,3.53,1.34,4.87,0,.84-.8,2.17-.8,3.01,0,1.35,1.34,3.53,1.34,4.87,0,.84-.8,2.17-.8,3.01,0,1.35,1.34,3.53,1.34,4.87,0l1.97-1.97-.93-.93-1.97,1.97c-.83.83-2.18.83-3.01,0-1.34-1.35-3.52-1.35-4.87,0h0c-.84.81-2.17.81-3.01,0-1.34-1.35-3.52-1.35-4.87,0h0c-.84.81-2.17.81-3.01,0-1.34-1.35-3.52-1.35-4.87,0h0c-.83.83-2.18.83-3.01,0-1.34-1.35-3.52-1.35-4.87,0h0l-1.97,1.97.93.93s1.97-1.97,1.97-1.97Z"/>
        <path class="cls-1" d="M7.5,25.41l10.27-10.27c.26-.26.26-.67,0-.93l-1.79-1.79c-1.52-1.53-1.52-3.99,0-5.52l5.32-5.32c.38-.37.99-.37,1.37,0,.38.38.38.99,0,1.37l-5.23,5.23c-.82.81-.82,2.14,0,2.95h0l8.84,8.84,5.91,5.91.93-.93-5.91-5.91-8.84-8.84c-.3-.3-.3-.79,0-1.09h0l5.23-5.23c.89-.89.89-2.34,0-3.23-.9-.86-2.33-.86-3.23,0l-5.32,5.32c-2.03,2.04-2.03,5.34,0,7.38l1.33,1.33-9.81,9.81.93.93h0Z"/>
        <path class="cls-1" d="M27.4,15.57c2.18,0,3.94-1.76,3.94-3.94s-1.76-3.94-3.94-3.94-3.94,1.76-3.94,3.94,1.77,3.94,3.94,3.94ZM27.4,8.99c1.45,0,2.63,1.18,2.63,2.63s-1.18,2.63-2.63,2.63-2.63-1.18-2.63-2.63,1.18-2.63,2.63-2.63Z"/>
        <path class="cls-1" d="M23.98,21.34l-2.96,2.96.93.93,2.49-2.49,2.49,2.49.93-.93-2.96-2.96c-.26-.26-.67-.26-.93,0h0Z"/>
      </g>
    </g>
  </g>
</svg>