<?xml version="1.0" encoding="UTF-8"?>
<svg id="Capa_2" data-name="Capa 2" xmlns="http://www.w3.org/2000/svg" viewBox="0 0 32.39 34.86">
  <defs>
    <style>
      .cls-1 {
        fill: #105459;
      }
    </style>
  </defs>
  <g id="Capa_1-2" data-name="Capa 1">
    <path class="cls-1" d="M.02.6C.48.04,1.09,0,1.77,0c2.39.03,4.77,0,7.16,0,.71,0,1.18.43,1.18,1.14v17.32c0,.48-.22.72-.7.72-2.9,0-5.8,0-8.7-.01-.24,0-.47-.18-.71-.28V.6h.02ZM32.38,22.31c-.08,2.94-1.46,5.16-3.8,6.83-1.87,1.34-3.99,1.92-6.28,1.91-2.1,0-4.19.02-6.29-.01-.49,0-.73.16-.93.59-.38.85-.84,1.67-1.24,2.51-.24.49-.6.71-1.14.71-3.85,0-7.71-.02-11.56,0-.61,0-.8-.42-1.12-.75v-12.59c.26-.05.51-.14.77-.14,10.22,0,20.44,0,30.66-.02.69,0,.96.24.94.93v.02ZM31.41,19.2c-3.02-.02-6.05,0-9.07,0s-6.15-.02-9.22.01c-.66,0-.83-.21-.82-.84.04-1.46.03-2.93,0-4.39,0-.47.15-.65.63-.65,6.07.01,12.15,0,18.22.01.77,0,1.2.44,1.21,1.22,0,1.24-.02,2.49,0,3.73.02.72-.3.91-.97.91h.01Z"/>
  </g>
</svg>