<?xml version="1.0" encoding="UTF-8"?>
<svg id="Capa_2" data-name="Capa 2" xmlns="http://www.w3.org/2000/svg" viewBox="0 0 37.33 34.35">
  <defs>
    <style>
      .cls-1 {
        fill: #105459;
      }
    </style>
  </defs>
  <g id="Capa_1-2" data-name="Capa 1">
    <path class="cls-1" d="M7,.92c0-.51.41-.92.92-.92h25.74c.51,0,.92.41.92.92v3.45c0,.51-.41.92-.92.92s-.92-.41-.92-.92V1.84h-2.55v1.11c0,.34-.28.61-.61.61s-.61-.28-.61-.61v-1.11h-2.32v1.11c0,.34-.28.61-.61.61s-.61-.28-.61-.61v-1.11h-2.32v1.11c0,.34-.28.61-.61.61s-.61-.28-.61-.61v-1.11h-2.32v1.11c0,.34-.28.61-.61.61s-.61-.28-.61-.61v-1.11h-2.32v1.11c0,.34-.28.61-.61.61s-.61-.28-.61-.61v-1.11h-2.32v1.11c0,.34-.28.61-.61.61s-.61-.28-.61-.61v-1.11h-2.37v2.53c0,.51-.41.92-.92.92s-.92-.41-.92-.92V.92h-.06ZM4.37,34.14H.92c-.51,0-.92-.41-.92-.92V7.48c0-.51.41-.92.92-.92h3.45c.51,0,.92.41.92.92s-.41.92-.92.92H1.84v2.55h1.11c.34,0,.61.28.61.61s-.28.61-.61.61h-1.11v2.32h1.11c.34,0,.61.28.61.61s-.28.61-.61.61h-1.11v2.32h1.11c.34,0,.61.28.61.61s-.28.61-.61.61h-1.11v2.32h1.11c.34,0,.61.27.61.61s-.28.61-.61.61h-1.11v2.32h1.11c.34,0,.61.27.61.61s-.28.61-.61.61h-1.11v2.32h1.11c.34,0,.61.28.61.61s-.28.61-.61.61h-1.11v2.37h2.53c.51,0,.92.41.92.92s-.41.92-.92.92v.06ZM36.97,19.26c-.36.49-.92.75-1.48.75-.38,0-.76-.12-1.09-.36l-2.09-1.54v14.4c0,1.02-.82,1.84-1.84,1.84H11.83c-1.02,0-1.84-.82-1.84-1.84v-14.28l-1.9,1.42c-.82.61-1.97.44-2.58-.37-.61-.81-.44-1.97.37-2.58l14.16-10.58c.65-.49,1.54-.49,2.2,0l14.34,10.58c.81.6.99,1.76.39,2.57h0Z"/>
  </g>
</svg>