<?xml version="1.0" encoding="UTF-8"?>
<svg id="Capa_2" data-name="Capa 2" xmlns="http://www.w3.org/2000/svg" viewBox="0 0 225.85 127.37">
  <defs>
    <style>
      .cls-1 {
        fill: currentColor;
      }
    </style>
  </defs>
  <g id="Capa_1-2" data-name="Capa 1">
    <g>
      <path class="cls-1" d="m207.73,91.67c-2.36,0-4.22,1.79-4.22,4.22,0,1.95,1.31,3.33,3.26,3.72-.68.42-1.48.57-2.22.57-2,0-3.17-1.05-4.83-2.72,4.36-5.01,6.95-11.63,6.95-18.9,0-15.75-12.07-28.41-28.15-28.41s-28.17,12.67-28.17,28.41,12.09,28.4,28.17,28.4c7.22,0,13.63-2.56,18.51-6.8,2.61,1.84,4.93,2.7,7.61,2.7,4.49,0,7.71-2.91,7.71-6.39,0-2.77-2.02-4.8-4.61-4.8Zm-29.21,10.91c-12.09,0-19.96-9.74-19.96-24.02s7.87-24.02,19.96-24.02,19.96,9.73,19.96,24.02c0,5.66-1.24,10.6-3.48,14.51-3.41-2.72-6.16-3.76-8.95-3.76-4.39,0-7.54,2.61-7.54,6.09,0,2.52,1.88,4.48,4.58,4.48,2.35,0,4.34-1.65,4.34-4.06,0-1.81-1.11-2.85-2.43-3.24.57-.18,1.05-.27,1.47-.27,2.18,0,3.57,1.64,6.14,4.1-3.45,3.92-8.28,6.16-14.09,6.16Z"/>
      <path class="cls-1" d="m148.9,9.35h14.8V0h-36.89l-42.32,77.37L40.27,0H3.18v9.35h14.79c3.75,0,5.82,2.06,5.82,5.82v35.42C9.85,52.95,0,64.55,0,79.47s9.85,26.53,23.78,28.89v3.85c0,3.75-2.06,5.8-5.82,5.8H3.18v9.36h52.07v-9.36h-14.79c-3.76,0-5.81-2.05-5.81-5.8v-3.99c.43-.08.85-.17,1.27-.27.62-.14,1.2-.32,1.79-.51,10.21-3.2,15.37-11.61,15.37-16.84,0-3.93-2.78-5.69-5.46-5.69-3.1,0-5.12,2.1-5.12,4.79,0,2.47,1.53,3.99,4.02,4.37-2.79,5.11-6.94,8.23-11.86,9.51v-48.21c4.92,1.28,9.06,4.39,11.86,9.51-2.48.37-4.02,1.89-4.02,4.37,0,2.69,2.02,4.78,5.12,4.78,2.68,0,5.46-1.76,5.46-5.7,0-5.25-5.18-13.72-15.54-16.9-.59-.17-1.17-.36-1.79-.51-.36-.08-.73-.16-1.09-.23V18.54l44.57,77.54h5.27L127.16,18.17v94.04c0,3.75-2.07,5.8-5.78,5.8h-12.94v9.36h55.26v-9.36h-14.8c-3.75,0-5.81-2.05-5.81-5.8V15.17c0-3.75,2.06-5.82,5.81-5.82ZM8.47,79.47c0-12.61,5.82-21.28,15.31-23.91v47.83c-9.49-2.64-15.31-11.31-15.31-23.92Z"/>
      <path class="cls-1" d="m225.85,119.42c0,3.89-3.14,7.05-7.04,7.05s-7.05-3.15-7.05-7.05,3.16-7.05,7.05-7.05,7.04,3.16,7.04,7.05"/>
    </g>
  </g>
</svg>