<?xml version="1.0" encoding="UTF-8"?>
<svg id="Capa_2" data-name="Capa 2" xmlns="http://www.w3.org/2000/svg" viewBox="0 0 33.97 33.97">
  <defs>
    <style>
      .cls-1 {
        fill: #105459;
      }
    </style>
  </defs>
  <g id="Capa_1-2" data-name="Capa 1">
    <path class="cls-1" d="M33.12,0H.86C.38,0,0,.39,0,.86v32.25c0,.48.39.86.86.86h32.25c.48,0,.86-.39.86-.86V.86c0-.48-.39-.86-.86-.86h0ZM16.11,20.21l-5.76,5.76h3.45c.92,0,1.66.74,1.66,1.66s-.74,1.66-1.66,1.66h-7.45c-.92,0-1.66-.74-1.66-1.66v-7.45c0-.92.74-1.66,1.66-1.66s1.66.74,1.66,1.66v3.45l5.76-5.76c.65-.65,1.7-.65,2.35,0,.65.65.65,1.7,0,2.35h-.01ZM16.11,16.11c-.32.32-.75.49-1.17.49s-.85-.16-1.17-.49l-5.76-5.76v3.45c0,.92-.74,1.66-1.66,1.66s-1.66-.74-1.66-1.66v-7.45c0-.92.74-1.66,1.66-1.66h7.45c.92,0,1.66.74,1.66,1.66s-.74,1.66-1.66,1.66h-3.45l5.76,5.76c.65.65.65,1.7,0,2.35h0ZM29.29,27.63c0,.92-.74,1.66-1.66,1.66h-7.45c-.92,0-1.66-.74-1.66-1.66s.74-1.66,1.66-1.66h3.45l-5.76-5.76c-.65-.65-.65-1.7,0-2.35s1.7-.65,2.35,0l5.76,5.76v-3.45c0-.92.74-1.66,1.66-1.66s1.66.74,1.66,1.66v7.45h-.01ZM29.29,13.8c0,.92-.74,1.66-1.66,1.66s-1.66-.74-1.66-1.66v-3.45l-5.76,5.76c-.32.32-.75.49-1.17.49s-.85-.16-1.17-.49c-.65-.65-.65-1.7,0-2.35l5.76-5.76h-3.45c-.92,0-1.66-.74-1.66-1.66s.74-1.66,1.66-1.66h7.45c.92,0,1.66.74,1.66,1.66v7.45h0Z"/>
  </g>
</svg>