<?xml version="1.0" encoding="UTF-8"?>
<svg id="Capa_2" data-name="Capa 2" xmlns="http://www.w3.org/2000/svg" viewBox="0 0 130.52 65.7">
  <defs>
    <style>
      .cls-1 {
        fill: #e2a700;
      }
    </style>
  </defs>
  <g id="Capa_1-2" data-name="Capa 1">
    <g id="uuid-59882c1f-ec34-4930-b21b-d0165c6f7503" data-name="Capa 1-2">
      <path class="cls-1" d="M128.98,0l-5.49,5.19c-6.31,6.15-43.41,43.74-49.54,49.41h0l-.02.03C69.25,50.44,40.98,22,19.15.08L7.58.02c3.2,3.2,5.93,5.94,7.32,7.34.37.43.88.89.85,1.42-.02.34-.25.69-.69,1.19-.58.65-1.52,1.56-2.68,2.73-1.85,1.85-4.24,4.24-6.44,6.44-1.83,1.83-3.53,3.52-4.68,4.69-.82.83-1.74,1.87-.98,3.05.46.83,1.41,1.84,2.33,2.67.6.52,1.23,1.08,2.01,1.27.78.17,1.44-.31,2.37-1.21,2.96-2.94,9.52-9.53,12.66-12.65.8-.7,1.66-1.98,2.82-1.58.4.15.85.49,1.41,1.01.73.67,1.67,1.63,2.74,2.7,1.13,1.13,2.36,2.37,3.41,3.41,1.14,1.15,2.04,2.03,2.47,2.7.46.7.42,1.2-.04,1.85-3.45,3.79-10.2,10.25-13.82,13.97-.51.53-1.01,1.02-1.28,1.67-.56,1.46,1.69,3.36,2.8,4.4,1.22,1.04,2.25,1.61,3.66.22,3.66-3.54,10.2-10.24,13.83-13.78.44-.41.94-.86,1.48-.94,1.18-.11,2.43,1.55,3.8,2.82,1.08,1.08,2.36,2.36,3.52,3.52,1.05,1.06,2,1.98,2.64,2.7.49.55.81.99.94,1.38.21.64-.14,1.13-.57,1.65-3.97,4.27-10.73,10.51-14.54,14.76-.41.55-.51,1.23-.19,1.84.55,1.11,2.04,2.61,3.2,3.5,1.47,1.14,2.35.69,3.7-.69,1.15-1.14,2.79-2.79,4.57-4.57,2.72-2.71,6-6.02,8.49-8.48,1.04-1,1.81-1.83,2.95-.81,3.78,3.56,10.82,10.8,14.29,14.2,1.07,1,1.84,1.98,3.2.64.59-.52,1.38-1.33,2.38-2.33,3.44-3.45,8.18-8.19,11.54-11.54.84-.85,1.82-1.79,2.55-1.34.59.27,1.35,1.07,2.49,2.2,3.66,3.66,9.26,9.28,12.13,12.12.65.6,1.31,1.32,2.22,1.24,1.05-.16,2.22-1.31,3.04-2.15,1.93-2.07,2.52-2.96.26-5.08-2.93-2.95-9.06-9.07-12.47-12.48-.93-.92-2.01-1.99-1.47-2.9.49-.94,1.36-1.68,2.1-2.48,1.63-1.63,3.92-3.92,5.54-5.54.86-.76,2.03-2.31,3.18-2.2.63.09,1.28.74,2.29,1.73,3.8,3.78,9.59,9.62,12.6,12.6,1.25,1.26,2.18,1.75,3.8.39.82-.65,1.73-1.57,2.38-2.39.37-.47.68-.94.77-1.51.14-.87-.56-1.6-1.7-2.75-3.47-3.49-7.52-7.51-10.9-10.91-.93-.97-2.82-2.67-3-3.38-.23-.65.24-1.22,1.26-2.27,3.79-3.82,9.67-9.66,14.39-14.4V.05s-1.54-.05-1.54-.05Z"/>
      <path class="cls-1" d="M105.48.06c-11.69,11.7-26.85,27.25-31.38,31.41C70.96,29.07,56.73,14.87,41.97,0l-11.32.06c18.97,19.02,39.99,40.07,43.15,43.01.23.05.48-.17,1.02-.71C83.31,33.88,108.74,8.42,117.13.04l-11.65.02Z"/>
    </g>
  </g>
</svg>